<svg xmlns="http://www.w3.org/2000/svg" xmlns:xlink="http://www.w3.org/1999/xlink" width="61.55" height="61.55" viewBox="0 0 61.55 61.55">
  <defs>
    <linearGradient id="linear-gradient" x1="0.5" x2="0.5" y2="1" gradientUnits="objectBoundingBox">
      <stop offset="0" stop-color="#2af598"/>
      <stop offset="1" stop-color="#009efd"/>
    </linearGradient>
  </defs>
  <path id="facebook_3_" data-name="facebook (3)" d="M54.337,0H7.213A7.221,7.221,0,0,0,0,7.213V54.337A7.221,7.221,0,0,0,7.213,61.55H54.337a7.221,7.221,0,0,0,7.213-7.213V7.213A7.221,7.221,0,0,0,54.337,0Zm2.4,54.337a2.407,2.407,0,0,1-2.4,2.4H40.152V39.19h7.7l.9-7.453H40.152V23.682a3.527,3.527,0,0,1,3.606-3.606h5.41V13.1a53.469,53.469,0,0,0-5.41-.481,11.131,11.131,0,0,0-7.711,3.245A10.946,10.946,0,0,0,32.7,23.7v8.033H24.884V39.19H32.7V56.741H7.213a2.407,2.407,0,0,1-2.4-2.4V7.213a2.407,2.407,0,0,1,2.4-2.4H54.337a2.407,2.407,0,0,1,2.4,2.4Zm0,0" fill="url(#linear-gradient)"/>
</svg>
