<svg xmlns="http://www.w3.org/2000/svg" xmlns:xlink="http://www.w3.org/1999/xlink" width="61.547" height="61.549" viewBox="0 0 61.547 61.549">
  <defs>
    <linearGradient id="linear-gradient" x1="0.5" x2="0.5" y2="1" gradientUnits="objectBoundingBox">
      <stop offset="0" stop-color="#2af598"/>
      <stop offset="1" stop-color="#009efd"/>
    </linearGradient>
  </defs>
  <path id="instagram_1_" data-name="instagram (1)" d="M31.381,61.551h-.613c-4.825.012-9.282-.111-13.617-.375A18.2,18.2,0,0,1,6.658,57.2,16.842,16.842,0,0,1,1,48.067,40.487,40.487,0,0,1,.07,38.4C.039,36.152.007,33.489,0,30.782S.039,25.4.07,23.153A40.492,40.492,0,0,1,1,13.485,16.842,16.842,0,0,1,6.658,4.349,18.2,18.2,0,0,1,17.151.377C21.486.113,25.945-.01,30.78,0c4.826-.01,9.282.111,13.617.375A18.2,18.2,0,0,1,54.89,4.349a16.84,16.84,0,0,1,5.659,9.137,40.49,40.49,0,0,1,.929,9.668c.031,2.247.063,4.91.069,7.617v.011c-.006,2.708-.039,5.37-.069,7.617a40.468,40.468,0,0,1-.929,9.668A16.84,16.84,0,0,1,54.89,57.2,18.2,18.2,0,0,1,44.4,61.175c-4.152.253-8.416.376-13.016.376Zm-.613-4.81c4.746.011,9.1-.108,13.337-.366a13.246,13.246,0,0,0,7.746-2.9,12.14,12.14,0,0,0,4.039-6.6,36.835,36.835,0,0,0,.78-8.545c.031-2.232.062-4.876.069-7.557s-.039-5.325-.069-7.557a36.841,36.841,0,0,0-.78-8.545,12.14,12.14,0,0,0-4.039-6.6,13.249,13.249,0,0,0-7.746-2.9c-4.233-.258-8.591-.377-13.326-.366-4.745-.011-9.1.108-13.337.366A13.249,13.249,0,0,0,9.7,8.075a12.14,12.14,0,0,0-4.039,6.6,36.839,36.839,0,0,0-.78,8.545c-.031,2.234-.062,4.879-.069,7.563s.039,5.318.069,7.551a36.835,36.835,0,0,0,.78,8.545,12.14,12.14,0,0,0,4.039,6.6,13.249,13.249,0,0,0,7.746,2.9C21.676,56.633,26.035,56.753,30.768,56.741ZM30.653,45.8A15.027,15.027,0,1,1,45.68,30.776,15.044,15.044,0,0,1,30.653,45.8Zm0-25.245A10.218,10.218,0,1,0,40.872,30.776,10.23,10.23,0,0,0,30.653,20.558Zm16.71-9.617a3.606,3.606,0,1,0,3.606,3.606A3.606,3.606,0,0,0,47.363,10.941Zm0,0" transform="translate(0 -0.001)" fill="url(#linear-gradient)"/>
</svg>
